<svg width="56" height="56" viewBox="0 0 56 56" fill="none" xmlns="http://www.w3.org/2000/svg">
<circle cx="28" cy="28" r="27.5" fill="#8DA8DC" stroke="black"/>
<path d="M26.3562 5.82433C24.8451 6.8018 24.3861 8.55395 25.3041 9.86349L25.7631 10.5272L23.7168 10.6194C21.2494 10.73 19.834 11.1726 16.6395 12.8142C10.5759 15.9316 9.65793 16.2819 7.64952 16.2819C7.13321 16.2819 6.34878 16.1527 5.90873 16.0051C5.44973 15.8576 5.04805 15.7653 4.99074 15.8023C4.95237 15.8576 5.29674 16.2449 5.75573 16.6876C6.75047 17.665 7.64952 17.9418 9.67687 17.9418H11.2069L8.10803 25.6333C5.46868 32.1993 4.93342 33.343 4.58906 33.3983C4.13006 33.4723 4.09169 33.7304 4.39769 35.1322C5.16268 38.6177 8.28045 40.85 12.0296 40.5914C15.3961 40.3516 18.1885 37.7513 18.4755 34.5233C18.5712 33.5454 18.5523 33.4348 18.2268 33.4348C17.9014 33.4348 17.3467 32.1806 14.7268 25.6881C13.0054 21.4091 11.628 17.9044 11.6663 17.8678C11.7042 17.8496 12.3167 17.665 13.0244 17.4988C13.7131 17.3142 15.3388 16.6871 16.6201 16.0787C19.2978 14.8244 20.8089 14.3448 22.5496 14.1603L23.7931 14.0497L24.2331 14.6951C24.4818 15.0455 24.9219 15.8571 25.1895 16.5025L25.7058 17.6646V28.2702C25.7058 39.687 25.6674 40.1296 24.6921 42.0663C24.0612 43.3388 23.2194 44.04 21.2873 44.8882C19.7952 45.5523 18.7242 46.4375 18.7242 47.0094C18.7242 47.415 19.3935 47.9686 20.1969 48.1714C21.6695 48.577 25.5334 48.7798 29.5308 48.688C36.1107 48.5218 37.7937 47.9504 36.7227 46.2905C36.321 45.6633 36.2064 45.5898 34.3699 44.8151C32.9735 44.2067 31.6732 43.0442 31.0802 41.8457C30.1428 39.909 30.1044 39.4294 30.1044 28.1784V17.665L30.5444 16.6323C30.7742 16.0604 31.2332 15.2305 31.5586 14.8061L32.1516 14.0315L33.2226 14.142C34.9824 14.3448 36.2642 14.7509 38.9992 16.0047C40.434 16.6688 42.1937 17.3325 42.9203 17.517C43.6664 17.7016 44.2973 17.8674 44.3357 17.8861C44.3741 17.9044 42.9966 21.4274 41.2942 25.6881C38.6548 32.2176 38.0997 33.4348 37.7941 33.4348C37.4498 33.4348 37.4308 33.5271 37.5265 34.5233C37.8325 37.7695 40.6249 40.3699 44.0491 40.5914C47.9892 40.8312 51.2794 38.2304 51.7384 34.5046C51.853 33.5271 51.8341 33.4718 51.4513 33.3978C51.0686 33.3426 50.6096 32.3464 47.9703 25.7804C46.3062 21.6302 44.9287 18.1629 44.9287 18.0889C44.9287 18.0149 45.5407 17.9414 46.2868 17.9414C48.1611 17.9414 49.0791 17.6463 50.0549 16.6871C50.5139 16.2445 50.8583 15.8571 50.8199 15.8019C50.7626 15.7649 50.3609 15.8571 49.9019 16.0047C49.4619 16.1522 48.6779 16.2815 48.1616 16.2815C46.1532 16.2815 45.2352 15.9311 39.1716 12.8142C35.9771 11.173 34.5613 10.7304 32.0943 10.6194L30.0476 10.5272L30.5066 9.86349C31.8073 8.03734 30.2579 5.39999 27.9051 5.39999C27.2931 5.39999 26.7957 5.52926 26.3562 5.82433ZM13.8277 27.6805C15.0712 30.7605 16.0465 33.306 15.9892 33.3613C15.9508 33.3983 13.8467 33.4166 11.322 33.3983L6.71258 33.343L9.04593 27.5882C10.3083 24.416 11.4177 21.8892 11.475 21.9627C11.5323 22.0367 12.6033 24.6006 13.8277 27.6805ZM47.1091 27.9021L49.3089 33.343L44.699 33.3983C42.1553 33.417 40.0512 33.417 40.0129 33.3613C39.9745 33.3243 40.8357 31.0743 41.945 28.3447C44.8141 21.1698 44.5844 21.6864 44.7757 22.1103C44.852 22.2948 45.904 24.9139 47.1091 27.9021Z" fill="black"/>
</svg>
